<svg id="svg" version="1.1" xmlns="http://www.w3.org/2000/svg" xmlns:xlink="http://www.w3.org/1999/xlink" width="400" height="400" viewBox="0, 0, 400,400"><g id="svgg"><path id="path0" d="M56.800 50.000 C 56.800 50.220,56.521 50.400,56.180 50.400 C 54.268 50.400,52.122 52.309,50.588 55.375 L 49.600 57.350 49.600 200.000 L 49.600 342.650 50.567 344.655 C 51.687 346.977,53.955 349.131,55.633 349.467 C 56.275 349.595,56.800 349.858,56.800 350.050 C 56.800 350.249,118.438 350.400,200.000 350.400 C 281.562 350.400,343.200 350.249,343.200 350.050 C 343.200 349.858,343.725 349.595,344.367 349.467 C 346.045 349.131,348.313 346.977,349.433 344.655 L 350.400 342.650 350.400 200.000 L 350.400 57.350 349.412 55.375 C 347.878 52.309,345.732 50.400,343.820 50.400 C 343.479 50.400,343.200 50.220,343.200 50.000 C 343.200 49.734,295.200 49.600,200.000 49.600 C 104.800 49.600,56.800 49.734,56.800 50.000 M335.600 200.000 L 335.600 335.600 200.000 335.600 L 64.400 335.600 64.400 200.000 L 64.400 64.400 200.000 64.400 L 335.600 64.400 335.600 200.000 M83.080 76.646 C 80.291 77.503,77.464 80.368,76.639 83.173 C 75.530 86.943,75.677 313.883,76.790 317.110 C 77.798 320.032,80.384 322.527,83.305 323.394 C 86.405 324.315,313.595 324.315,316.695 323.394 C 319.616 322.527,322.202 320.032,323.210 317.110 C 324.454 313.505,324.454 86.495,323.210 82.890 C 322.202 79.968,319.616 77.473,316.695 76.606 C 313.643 75.700,86.032 75.738,83.080 76.646 M312.000 200.401 L 312.000 312.801 199.700 312.701 L 87.400 312.600 87.299 200.300 L 87.199 88.000 199.599 88.000 L 312.000 88.000 312.000 200.401 M143.400 127.812 C 125.730 130.756,116.217 143.205,116.205 163.400 C 116.192 184.398,123.400 195.002,144.800 205.467 C 154.517 210.219,159.563 213.131,164.332 216.737 C 173.732 223.844,174.174 243.273,165.130 251.838 C 156.434 260.074,136.671 259.971,118.543 251.596 C 116.643 250.718,114.933 250.000,114.744 250.000 C 114.555 250.000,114.400 253.678,114.400 258.173 L 114.400 266.346 115.500 267.129 C 123.733 272.991,149.284 275.125,161.200 270.945 C 177.416 265.258,185.423 251.564,184.675 230.800 C 184.023 212.706,175.863 202.175,155.204 192.765 C 134.988 183.557,129.280 177.173,129.115 163.591 C 128.867 143.106,148.425 136.634,174.543 148.559 C 177.659 149.981,178.400 150.066,178.400 149.001 C 178.400 148.698,178.841 147.043,179.379 145.325 C 182.621 134.984,182.846 134.000,181.975 134.000 C 181.741 134.000,180.616 133.559,179.475 133.020 C 168.964 128.053,154.494 125.964,143.400 127.812 M211.600 200.200 L 211.600 271.200 218.400 271.200 L 225.200 271.200 225.200 242.844 L 225.200 214.487 229.333 210.144 C 231.607 207.755,234.022 205.171,234.700 204.401 L 235.932 203.002 248.799 229.001 C 255.875 243.301,263.472 258.645,265.680 263.100 L 269.696 271.200 277.248 271.200 C 281.402 271.200,284.800 271.098,284.800 270.972 C 284.800 270.847,275.813 252.787,264.828 230.840 L 244.856 190.935 251.531 180.367 C 255.202 174.555,262.075 163.638,266.803 156.106 C 271.531 148.574,275.889 141.644,276.486 140.706 C 277.084 139.768,277.945 138.370,278.400 137.600 C 278.855 136.830,279.750 135.390,280.388 134.400 C 281.027 133.410,282.000 131.831,282.551 130.891 L 283.553 129.183 275.917 129.291 L 268.282 129.400 266.072 133.000 C 260.392 142.254,255.412 150.336,254.549 151.700 C 254.027 152.525,253.173 153.875,252.651 154.700 C 252.129 155.525,249.820 159.260,247.520 163.000 C 245.220 166.740,241.170 173.310,238.520 177.600 C 235.870 181.890,233.019 186.660,232.185 188.200 C 231.350 189.740,230.071 192.080,229.343 193.400 C 228.614 194.720,227.531 196.735,226.936 197.879 C 226.341 199.022,225.707 199.866,225.527 199.755 C 225.347 199.644,225.200 183.723,225.200 164.376 L 225.200 129.200 218.400 129.200 L 211.600 129.200 211.600 200.200 " stroke="none" fill="#040404" fill-rule="evenodd"></path><path id="path1" d="M64.800 200.000 L 64.800 335.200 200.000 335.200 L 335.200 335.200 335.200 200.000 L 335.200 64.800 200.000 64.800 L 64.800 64.800 64.800 200.000 M319.228 77.275 C 321.069 78.357,322.796 80.442,323.578 82.526 C 324.171 84.109,324.171 315.891,323.578 317.474 C 322.796 319.558,321.069 321.643,319.228 322.725 L 317.400 323.800 200.000 323.800 L 82.600 323.800 80.772 322.725 C 78.931 321.643,77.204 319.558,76.422 317.474 C 76.129 316.693,76.000 280.649,76.000 199.852 L 76.000 83.357 77.041 81.267 C 78.173 78.996,79.948 77.411,82.299 76.569 C 83.544 76.124,103.720 76.047,200.600 76.116 L 317.400 76.200 319.228 77.275 M87.600 200.200 L 87.600 312.400 199.800 312.400 L 312.000 312.400 312.000 200.200 L 312.000 88.000 199.800 88.000 L 87.600 88.000 87.600 200.200 M160.400 127.180 C 170.064 128.826,173.550 129.826,179.735 132.724 C 183.106 134.304,183.158 134.350,182.822 135.466 C 182.634 136.090,181.851 138.670,181.083 141.200 C 180.315 143.730,179.392 146.835,179.032 148.100 C 178.243 150.872,178.836 150.858,172.787 148.250 C 152.885 139.670,135.803 142.025,130.999 154.009 C 129.847 156.882,129.800 157.244,129.800 163.200 C 129.800 177.094,134.891 183.154,153.660 191.605 C 177.269 202.236,185.007 212.559,184.988 233.400 C 184.971 251.973,178.494 263.646,164.696 269.974 C 152.422 275.603,127.822 274.507,115.900 267.800 L 114.000 266.732 114.000 258.232 C 114.000 253.558,114.103 249.631,114.228 249.505 C 114.353 249.380,116.108 250.057,118.128 251.010 C 136.187 259.531,156.632 259.616,165.228 251.204 C 169.421 247.102,170.985 242.638,170.978 234.800 C 170.965 221.228,167.724 217.497,146.800 206.969 C 123.428 195.210,116.757 186.411,115.739 166.000 C 114.660 144.390,124.810 130.611,144.400 127.089 C 146.332 126.741,158.224 126.809,160.400 127.180 M225.602 164.100 L 225.603 199.400 230.039 191.400 C 233.915 184.409,236.465 180.074,239.802 174.800 C 240.289 174.030,242.896 169.800,245.595 165.400 C 248.294 161.000,250.929 156.725,251.451 155.900 C 253.542 152.596,254.416 151.191,257.484 146.200 C 259.243 143.340,262.370 138.255,264.433 134.900 L 268.185 128.800 276.093 128.800 C 280.442 128.800,284.000 128.949,284.000 129.131 C 284.000 129.314,283.433 130.349,282.740 131.431 C 281.532 133.319,280.798 134.483,278.600 138.000 C 278.050 138.880,277.150 140.320,276.600 141.200 C 274.327 144.837,273.655 145.904,272.319 148.000 C 271.547 149.210,266.352 157.490,260.773 166.400 C 248.981 185.233,249.624 184.210,247.358 187.737 C 246.391 189.243,245.600 190.738,245.600 191.060 C 245.600 191.381,254.600 209.571,265.600 231.480 C 276.600 253.389,285.600 271.379,285.600 271.457 C 285.600 271.536,281.955 271.600,277.500 271.600 L 269.400 271.600 264.029 260.700 C 261.075 254.705,253.537 239.450,247.278 226.801 L 235.898 203.802 230.756 209.201 L 225.614 214.600 225.607 243.109 L 225.600 271.618 218.500 271.509 L 211.400 271.400 211.297 200.600 C 211.241 161.660,211.280 129.575,211.385 129.300 C 211.527 128.926,213.345 128.800,218.587 128.800 L 225.600 128.800 225.602 164.100 " stroke="none" fill="#fbfbfb" fill-rule="evenodd"></path><path id="path2" d="M87.399 200.300 L 87.400 312.600 199.800 312.601 L 312.200 312.602 199.901 312.500 L 87.601 312.399 87.500 200.199 L 87.398 88.000 87.399 200.300 M149.715 127.096 C 150.988 127.176,152.968 127.175,154.115 127.094 C 155.262 127.014,154.220 126.949,151.800 126.950 C 149.380 126.951,148.442 127.016,149.715 127.096 M218.300 129.094 L 225.200 129.219 225.200 164.386 C 225.200 183.728,225.335 199.636,225.500 199.738 C 225.665 199.840,225.710 183.966,225.600 164.462 L 225.400 129.000 218.400 128.985 L 211.400 128.970 218.300 129.094 M268.261 129.100 C 268.158 129.265,270.443 129.353,273.337 129.296 C 282.905 129.107,283.904 128.958,276.124 128.878 C 271.902 128.835,268.363 128.935,268.261 129.100 M125.200 136.600 C 124.228 137.590,123.523 138.400,123.633 138.400 C 123.743 138.400,124.628 137.590,125.600 136.600 C 126.572 135.610,127.277 134.800,127.167 134.800 C 127.057 134.800,126.172 135.610,125.200 136.600 M146.705 143.083 C 147.202 143.179,147.922 143.175,148.305 143.075 C 148.687 142.975,148.280 142.896,147.400 142.901 C 146.520 142.905,146.207 142.987,146.705 143.083 M154.500 143.076 C 154.885 143.176,155.515 143.176,155.900 143.076 C 156.285 142.975,155.970 142.893,155.200 142.893 C 154.430 142.893,154.115 142.975,154.500 143.076 M115.693 163.200 C 115.693 163.970,115.775 164.285,115.876 163.900 C 115.976 163.515,115.976 162.885,115.876 162.500 C 115.775 162.115,115.693 162.430,115.693 163.200 M129.301 167.000 C 129.305 167.880,129.387 168.193,129.483 167.695 C 129.579 167.198,129.575 166.478,129.475 166.095 C 129.375 165.713,129.296 166.120,129.301 167.000 M127.200 194.125 C 127.200 194.194,127.785 194.779,128.500 195.425 L 129.800 196.600 128.625 195.300 C 127.530 194.088,127.200 193.816,127.200 194.125 M234.770 204.300 L 233.800 205.400 234.830 204.496 C 235.396 203.999,236.010 203.729,236.194 203.896 C 236.378 204.063,236.399 203.975,236.241 203.700 C 235.862 203.042,235.888 203.031,234.770 204.300 M174.783 205.300 C 176.441 207.066,176.800 207.384,176.800 207.083 C 176.800 207.019,175.945 206.164,174.900 205.183 L 173.000 203.400 174.783 205.300 M229.785 209.700 L 227.800 211.800 229.900 209.815 C 231.851 207.971,232.183 207.600,231.885 207.600 C 231.822 207.600,230.877 208.545,229.785 209.700 M225.297 242.691 L 225.200 271.181 218.300 271.301 L 211.400 271.420 218.313 271.510 C 223.542 271.578,225.272 271.478,225.416 271.100 C 225.521 270.825,225.559 257.910,225.501 242.400 L 225.395 214.200 225.297 242.691 M164.400 216.925 C 164.400 216.994,164.985 217.579,165.700 218.225 L 167.000 219.400 165.825 218.100 C 164.730 216.888,164.400 216.616,164.400 216.925 M248.600 229.200 C 248.941 229.860,249.311 230.400,249.421 230.400 C 249.531 230.400,249.341 229.860,249.000 229.200 C 248.659 228.540,248.289 228.000,248.179 228.000 C 248.069 228.000,248.259 228.540,248.600 229.200 M184.944 233.200 C 184.944 235.290,185.012 236.145,185.094 235.100 C 185.176 234.055,185.176 232.345,185.094 231.300 C 185.012 230.255,184.944 231.110,184.944 233.200 M171.293 231.200 C 171.293 231.970,171.375 232.285,171.476 231.900 C 171.576 231.515,171.576 230.885,171.476 230.500 C 171.375 230.115,171.293 230.430,171.293 231.200 M160.700 254.629 C 159.205 255.440,159.296 255.778,160.800 255.000 C 161.460 254.659,162.000 254.294,162.000 254.190 C 162.000 253.932,161.957 253.947,160.700 254.629 M143.700 257.894 C 144.745 257.976,146.455 257.976,147.500 257.894 C 148.545 257.812,147.690 257.744,145.600 257.744 C 143.510 257.744,142.655 257.812,143.700 257.894 M266.600 265.600 C 266.941 266.260,267.311 266.800,267.421 266.800 C 267.531 266.800,267.341 266.260,267.000 265.600 C 266.659 264.940,266.289 264.400,266.179 264.400 C 266.069 264.400,266.259 264.940,266.600 265.600 M277.200 271.200 L 269.400 271.426 277.300 271.513 C 282.358 271.569,285.200 271.456,285.200 271.200 C 285.200 270.980,285.155 270.839,285.100 270.887 C 285.045 270.935,281.490 271.076,277.200 271.200 M136.705 273.083 C 137.202 273.179,137.922 273.175,138.305 273.075 C 138.687 272.975,138.280 272.896,137.400 272.901 C 136.520 272.905,136.207 272.987,136.705 273.083 M142.517 273.497 C 144.011 273.574,146.351 273.574,147.717 273.496 C 149.082 273.418,147.860 273.355,145.000 273.355 C 142.140 273.356,141.022 273.420,142.517 273.497 " stroke="none" fill="#7c7c7c" fill-rule="evenodd"></path><path id="path3" d="M64.585 64.899 C 64.481 65.175,64.441 126.150,64.498 200.400 L 64.600 335.400 200.000 335.400 L 335.400 335.400 335.400 200.000 L 335.400 64.600 200.088 64.499 C 92.047 64.419,64.737 64.500,64.585 64.899 M335.200 200.000 L 335.200 335.200 200.000 335.200 L 64.800 335.200 64.800 200.000 L 64.800 64.800 200.000 64.800 L 335.200 64.800 335.200 200.000 M157.300 127.076 C 157.685 127.176,158.315 127.176,158.700 127.076 C 159.085 126.975,158.770 126.893,158.000 126.893 C 157.230 126.893,156.915 126.975,157.300 127.076 M211.396 200.200 C 211.396 239.360,211.443 255.321,211.500 235.668 C 211.557 216.016,211.557 183.976,211.500 164.468 C 211.443 144.961,211.396 161.040,211.396 200.200 M150.500 143.076 C 150.885 143.176,151.515 143.176,151.900 143.076 C 152.285 142.975,151.970 142.893,151.200 142.893 C 150.430 142.893,150.115 142.975,150.500 143.076 M115.693 159.600 C 115.693 160.370,115.775 160.685,115.876 160.300 C 115.976 159.915,115.976 159.285,115.876 158.900 C 115.775 158.515,115.693 158.830,115.693 159.600 M129.320 162.800 C 129.320 164.010,129.395 164.505,129.487 163.900 C 129.578 163.295,129.578 162.305,129.487 161.700 C 129.395 161.095,129.320 161.590,129.320 162.800 M115.693 166.800 C 115.693 167.570,115.775 167.885,115.876 167.500 C 115.976 167.115,115.976 166.485,115.876 166.100 C 115.775 165.715,115.693 166.030,115.693 166.800 M126.600 194.000 C 127.683 195.100,128.660 196.000,128.770 196.000 C 128.880 196.000,128.083 195.100,127.000 194.000 C 125.917 192.900,124.940 192.000,124.830 192.000 C 124.720 192.000,125.517 192.900,126.600 194.000 M233.983 205.500 L 232.200 207.400 234.024 205.691 C 235.028 204.751,236.002 204.121,236.188 204.291 C 236.375 204.461,236.399 204.375,236.241 204.100 C 235.859 203.437,236.005 203.346,233.983 205.500 M227.385 212.500 L 225.400 214.600 227.500 212.615 C 229.451 210.771,229.783 210.400,229.485 210.400 C 229.422 210.400,228.477 211.345,227.385 212.500 M164.000 216.925 C 164.000 216.994,164.585 217.579,165.300 218.225 L 166.600 219.400 165.425 218.100 C 164.330 216.888,164.000 216.616,164.000 216.925 M184.893 227.600 C 184.893 228.370,184.975 228.685,185.076 228.300 C 185.176 227.915,185.176 227.285,185.076 226.900 C 184.975 226.515,184.893 226.830,184.893 227.600 M170.893 230.400 C 170.893 231.170,170.975 231.485,171.076 231.100 C 171.176 230.715,171.176 230.085,171.076 229.700 C 170.975 229.315,170.893 229.630,170.893 230.400 M171.314 235.000 C 171.317 236.100,171.395 236.503,171.487 235.895 C 171.579 235.286,171.577 234.386,171.482 233.895 C 171.387 233.403,171.311 233.900,171.314 235.000 M114.267 249.467 C 113.897 249.836,113.929 266.709,114.300 266.938 C 114.465 267.040,114.600 263.091,114.600 258.162 C 114.600 253.233,114.585 249.200,114.567 249.200 C 114.548 249.200,114.413 249.320,114.267 249.467 M140.105 257.487 C 140.714 257.579,141.614 257.577,142.105 257.482 C 142.597 257.387,142.100 257.311,141.000 257.314 C 139.900 257.317,139.497 257.395,140.105 257.487 " stroke="none" fill="#9f9f9f" fill-rule="evenodd"></path><path id="path4" d="" stroke="none" fill="#848484" fill-rule="evenodd"></path></g></svg>